PathFileType	4	(X/Y/Z)	C:\Users\italobelli\Desktop\GitHub\PTbot_officialCBL\Personal_Results\ABD23_noisy2.trc
DataRate	CameraRate	NumFrames	NumMarkers	Units	OrigDataRate	OrigDataStartFrame	OrigNumFrames
105.444444	105.444444	51	9	m	105.444444	1	950
Frame#	Time		gu		centelbow		EpL		centpxt8		centijc7		ij		ts		aa		ai
			X1	Y1	Z1	X2	Y2	Z2	X3	Y3	Z3	X4	Y4	Z4	X5	Y5	Z5	X6	Y6	Z6	X7	Y7	Z7	X8	Y8	Z8	X9	Y9	Z9

1	0	-0.096688	-0.00936	0.15991	-0.1354	-0.24798	0.18974	-0.14024	-0.23947	0.22045	-0.046816	-0.15316	-0.008669	-0.046816	0.031938	-0.008669	0	0	0	-0.12831	0.029297	0.037305	-0.12641	0.028338	0.15655	-0.14612	-0.082718	0.041901
2	0.0094837	-0.096703	-0.0093424	0.15995	-0.1353	-0.24781	0.1898	-0.14014	-0.2393	0.22051	-0.046816	-0.15316	-0.008669	-0.046816	0.031938	-0.008669	0	0	0	-0.12832	0.029301	0.037326	-0.12643	0.028365	0.15657	-0.14613	-0.082713	0.041942
3	0.018967	-0.096718	-0.0093253	0.15998	-0.13521	-0.24764	0.18986	-0.14004	-0.23914	0.22058	-0.046816	-0.15316	-0.008669	-0.046816	0.031938	-0.008669	0	0	0	-0.12833	0.029304	0.037346	-0.12645	0.02839	0.15659	-0.14614	-0.082709	0.041982
4	0.028451	-0.096733	-0.0093086	0.16001	-0.13511	-0.24747	0.18992	-0.13994	-0.23898	0.22064	-0.046816	-0.15316	-0.008669	-0.046816	0.031938	-0.008669	0	0	0	-0.12833	0.029307	0.037365	-0.12646	0.028414	0.15661	-0.14616	-0.082705	0.042021
5	0.037935	-0.096747	-0.0092925	0.16004	-0.13502	-0.2473	0.18998	-0.13984	-0.23881	0.2207	-0.046816	-0.15316	-0.008669	-0.046816	0.031938	-0.008669	0	0	0	-0.12834	0.029309	0.037384	-0.12648	0.028436	0.15663	-0.14617	-0.082701	0.042058
6	0.047418	-0.096761	-0.0092768	0.16007	-0.13492	-0.24714	0.19004	-0.13974	-0.23865	0.22076	-0.046816	-0.15316	-0.008669	-0.046816	0.031938	-0.008669	0	0	0	-0.12835	0.029311	0.037402	-0.1265	0.028456	0.15665	-0.14618	-0.082698	0.042094
7	0.056902	-0.096774	-0.0092615	0.1601	-0.13483	-0.24698	0.1901	-0.13964	-0.2385	0.22082	-0.046816	-0.15316	-0.008669	-0.046816	0.031938	-0.008669	0	0	0	-0.12835	0.029312	0.037419	-0.12652	0.028475	0.15667	-0.14618	-0.082696	0.042129
8	0.066386	-0.096787	-0.0092467	0.16013	-0.13473	-0.24682	0.19016	-0.13954	-0.23834	0.22088	-0.046816	-0.15316	-0.008669	-0.046816	0.031938	-0.008669	0	0	0	-0.12836	0.029314	0.037436	-0.12653	0.028493	0.15668	-0.14619	-0.082693	0.042162
9	0.075869	-0.0968	-0.0092323	0.16016	-0.13464	-0.24666	0.19021	-0.13944	-0.23818	0.22094	-0.046816	-0.15316	-0.008669	-0.046816	0.031938	-0.008669	0	0	0	-0.12836	0.029315	0.037452	-0.12655	0.028509	0.1567	-0.1462	-0.082691	0.042195
10	0.085353	-0.096812	-0.0092183	0.16019	-0.13455	-0.2465	0.19027	-0.13934	-0.23803	0.221	-0.046816	-0.15316	-0.008669	-0.046816	0.031938	-0.008669	0	0	0	-0.12837	0.029315	0.037468	-0.12657	0.028524	0.15672	-0.14621	-0.08269	0.042225
11	0.094837	-0.096824	-0.0092048	0.16021	-0.13446	-0.24634	0.19033	-0.13924	-0.23788	0.22106	-0.046816	-0.15316	-0.008669	-0.046816	0.031938	-0.008669	0	0	0	-0.12837	0.029315	0.037483	-0.12658	0.028537	0.15673	-0.14622	-0.082689	0.042255
12	0.10432	-0.096836	-0.0091916	0.16024	-0.13437	-0.24619	0.19038	-0.13914	-0.23773	0.22111	-0.046816	-0.15316	-0.008669	-0.046816	0.031938	-0.008669	0	0	0	-0.12838	0.029315	0.037498	-0.1266	0.028549	0.15675	-0.14622	-0.082688	0.042283
13	0.1138	-0.096847	-0.0091788	0.16026	-0.13428	-0.24604	0.19044	-0.13904	-0.23758	0.22117	-0.046816	-0.15316	-0.008669	-0.046816	0.031938	-0.008669	0	0	0	-0.12838	0.029315	0.037512	-0.12662	0.02856	0.15676	-0.14623	-0.082688	0.04231
14	0.12329	-0.096858	-0.0091663	0.16028	-0.13419	-0.24589	0.1905	-0.13894	-0.23743	0.22123	-0.046816	-0.15316	-0.008669	-0.046816	0.031938	-0.008669	0	0	0	-0.12839	0.029314	0.037525	-0.12663	0.028569	0.15677	-0.14623	-0.082688	0.042336
15	0.13277	-0.096869	-0.0091542	0.1603	-0.1341	-0.24574	0.19055	-0.13884	-0.23729	0.22128	-0.046816	-0.15316	-0.008669	-0.046816	0.031938	-0.008669	0	0	0	-0.12839	0.029313	0.037538	-0.12665	0.028578	0.15679	-0.14624	-0.082688	0.04236
16	0.14226	-0.096879	-0.0091425	0.16032	-0.13402	-0.24559	0.19061	-0.13874	-0.23714	0.22134	-0.046816	-0.15316	-0.008669	-0.046816	0.031938	-0.008669	0	0	0	-0.12839	0.029312	0.037551	-0.12666	0.028584	0.1568	-0.14624	-0.082688	0.042384
17	0.15174	-0.096889	-0.0091311	0.16034	-0.13393	-0.24544	0.19066	-0.13865	-0.237	0.22139	-0.046816	-0.15316	-0.008669	-0.046816	0.031938	-0.008669	0	0	0	-0.1284	0.02931	0.037563	-0.12667	0.02859	0.15681	-0.14625	-0.082689	0.042405
18	0.16122	-0.096898	-0.00912	0.16036	-0.13385	-0.2453	0.19072	-0.13855	-0.23685	0.22145	-0.046816	-0.15316	-0.008669	-0.046816	0.031938	-0.008669	0	0	0	-0.1284	0.029308	0.037574	-0.12669	0.028595	0.15682	-0.14625	-0.082691	0.042426
19	0.17071	-0.096908	-0.0091092	0.16038	-0.13376	-0.24515	0.19077	-0.13846	-0.23671	0.2215	-0.046816	-0.15316	-0.008669	-0.046816	0.031938	-0.008669	0	0	0	-0.1284	0.029306	0.037585	-0.1267	0.028598	0.15684	-0.14626	-0.082692	0.042445
20	0.18019	-0.096916	-0.0090987	0.16039	-0.13368	-0.24501	0.19083	-0.13836	-0.23657	0.22156	-0.046816	-0.15316	-0.008669	-0.046816	0.031938	-0.008669	0	0	0	-0.1284	0.029304	0.037596	-0.12671	0.028601	0.15685	-0.14626	-0.082694	0.042464
21	0.18967	-0.096925	-0.0090885	0.16041	-0.1336	-0.24487	0.19088	-0.13827	-0.23643	0.22161	-0.046816	-0.15316	-0.008669	-0.046816	0.031938	-0.008669	0	0	0	-0.1284	0.029301	0.037606	-0.12673	0.028602	0.15686	-0.14626	-0.082696	0.04248
22	0.19916	-0.096933	-0.0090785	0.16042	-0.13352	-0.24473	0.19093	-0.13818	-0.23629	0.22166	-0.046816	-0.15316	-0.008669	-0.046816	0.031938	-0.008669	0	0	0	-0.12841	0.029298	0.037615	-0.12674	0.028602	0.15687	-0.14627	-0.082698	0.042496
23	0.20864	-0.096941	-0.0090688	0.16043	-0.13344	-0.24459	0.19099	-0.13809	-0.23616	0.22172	-0.046816	-0.15316	-0.008669	-0.046816	0.031938	-0.008669	0	0	0	-0.12841	0.029295	0.037625	-0.12675	0.028601	0.15687	-0.14627	-0.082701	0.04251
24	0.21812	-0.096948	-0.0090594	0.16045	-0.13336	-0.24445	0.19104	-0.138	-0.23602	0.22177	-0.046816	-0.15316	-0.008669	-0.046816	0.031938	-0.008669	0	0	0	-0.12841	0.029292	0.037634	-0.12676	0.0286	0.15688	-0.14627	-0.082703	0.042523
25	0.22761	-0.096955	-0.0090502	0.16046	-0.13328	-0.24431	0.1911	-0.13792	-0.23589	0.22182	-0.046816	-0.15316	-0.008669	-0.046816	0.031938	-0.008669	0	0	0	-0.12841	0.029289	0.037642	-0.12677	0.028597	0.15689	-0.14627	-0.082706	0.042535
26	0.23709	-0.096962	-0.0090412	0.16047	-0.13321	-0.24418	0.19115	-0.13783	-0.23575	0.22188	-0.046816	-0.15316	-0.008669	-0.046816	0.031938	-0.008669	0	0	0	-0.12841	0.029285	0.03765	-0.12679	0.028593	0.1569	-0.14627	-0.08271	0.042545
27	0.24658	-0.096968	-0.0090324	0.16047	-0.13313	-0.24404	0.1912	-0.13775	-0.23562	0.22193	-0.046816	-0.15316	-0.008669	-0.046816	0.031938	-0.008669	0	0	0	-0.12841	0.029281	0.037658	-0.1268	0.028589	0.15691	-0.14627	-0.082713	0.042555
28	0.25606	-0.096975	-0.0090238	0.16048	-0.13306	-0.24391	0.19125	-0.13767	-0.23548	0.22198	-0.046816	-0.15316	-0.008669	-0.046816	0.031938	-0.008669	0	0	0	-0.12841	0.029278	0.037665	-0.1268	0.028584	0.15691	-0.14627	-0.082717	0.042563
29	0.26554	-0.09698	-0.0090154	0.16049	-0.13298	-0.24378	0.19131	-0.13759	-0.23535	0.22203	-0.046816	-0.15316	-0.008669	-0.046816	0.031938	-0.008669	0	0	0	-0.12841	0.029273	0.037672	-0.12681	0.028578	0.15692	-0.14627	-0.082721	0.04257
30	0.27503	-0.096986	-0.0090072	0.16049	-0.13291	-0.24365	0.19136	-0.13752	-0.23522	0.22208	-0.046816	-0.15316	-0.008669	-0.046816	0.031938	-0.008669	0	0	0	-0.12841	0.029269	0.037678	-0.12682	0.028571	0.15693	-0.14627	-0.082725	0.042575
31	0.28451	-0.096991	-0.0089991	0.1605	-0.13284	-0.24352	0.19141	-0.13745	-0.23509	0.22213	-0.046816	-0.15316	-0.008669	-0.046816	0.031938	-0.008669	0	0	0	-0.12841	0.029265	0.037684	-0.12683	0.028563	0.15693	-0.14627	-0.082729	0.042579
32	0.29399	-0.096995	-0.0089912	0.1605	-0.13277	-0.24339	0.19147	-0.13738	-0.23496	0.22219	-0.046816	-0.15316	-0.008669	-0.046816	0.031938	-0.008669	0	0	0	-0.12841	0.029261	0.03769	-0.12684	0.028554	0.15694	-0.14627	-0.082733	0.042582
33	0.30348	-0.097	-0.0089834	0.1605	-0.13271	-0.24326	0.19152	-0.13731	-0.23483	0.22224	-0.046816	-0.15316	-0.008669	-0.046816	0.031938	-0.008669	0	0	0	-0.12841	0.029256	0.037696	-0.12685	0.028545	0.15695	-0.14627	-0.082738	0.042584
34	0.31296	-0.097004	-0.0089758	0.1605	-0.13264	-0.24313	0.19157	-0.13724	-0.2347	0.22229	-0.046816	-0.15316	-0.008669	-0.046816	0.031938	-0.008669	0	0	0	-0.12841	0.029251	0.037701	-0.12685	0.028536	0.15695	-0.14627	-0.082742	0.042585
35	0.32244	-0.097007	-0.0089682	0.1605	-0.13257	-0.24301	0.19162	-0.13718	-0.23458	0.22234	-0.046816	-0.15316	-0.008669	-0.046816	0.031938	-0.008669	0	0	0	-0.1284	0.029247	0.037706	-0.12686	0.028525	0.15696	-0.14627	-0.082747	0.042584
36	0.33193	-0.097011	-0.0089608	0.1605	-0.13251	-0.24288	0.19167	-0.13712	-0.23445	0.22239	-0.046816	-0.15316	-0.008669	-0.046816	0.031938	-0.008669	0	0	0	-0.1284	0.029242	0.037711	-0.12687	0.028514	0.15696	-0.14627	-0.082752	0.042582
37	0.34141	-0.097014	-0.0089535	0.1605	-0.13245	-0.24275	0.19173	-0.13706	-0.23432	0.22244	-0.046816	-0.15316	-0.008669	-0.046816	0.031938	-0.008669	0	0	0	-0.1284	0.029237	0.037715	-0.12687	0.028503	0.15696	-0.14627	-0.082757	0.042579
38	0.3509	-0.097016	-0.0089462	0.1605	-0.13239	-0.24263	0.19178	-0.13701	-0.2342	0.22249	-0.046816	-0.15316	-0.008669	-0.046816	0.031938	-0.008669	0	0	0	-0.1284	0.029232	0.037719	-0.12688	0.02849	0.15697	-0.14627	-0.082762	0.042575
39	0.36038	-0.097019	-0.008939	0.16049	-0.13233	-0.24251	0.19183	-0.13696	-0.23407	0.22254	-0.046816	-0.15316	-0.008669	-0.046816	0.031938	-0.008669	0	0	0	-0.1284	0.029227	0.037723	-0.12688	0.028478	0.15697	-0.14627	-0.082767	0.04257
40	0.36986	-0.097021	-0.0089319	0.16049	-0.13227	-0.24238	0.19188	-0.13691	-0.23394	0.22259	-0.046816	-0.15316	-0.008669	-0.046816	0.031938	-0.008669	0	0	0	-0.1284	0.029222	0.037727	-0.12688	0.028465	0.15698	-0.14627	-0.082772	0.042563
41	0.37935	-0.097022	-0.0089248	0.16048	-0.13222	-0.24226	0.19194	-0.13687	-0.23382	0.22264	-0.046816	-0.15316	-0.008669	-0.046816	0.031938	-0.008669	0	0	0	-0.1284	0.029217	0.037731	-0.12689	0.028451	0.15698	-0.14627	-0.082778	0.042555
42	0.38883	-0.097024	-0.0089177	0.16047	-0.13216	-0.24214	0.19199	-0.13683	-0.23369	0.22269	-0.046816	-0.15316	-0.008669	-0.046816	0.031938	-0.008669	0	0	0	-0.12839	0.029212	0.037734	-0.12689	0.028437	0.15698	-0.14627	-0.082783	0.042546
43	0.39831	-0.097025	-0.0089106	0.16047	-0.13211	-0.24202	0.19204	-0.13679	-0.23357	0.22274	-0.046816	-0.15316	-0.008669	-0.046816	0.031938	-0.008669	0	0	0	-0.12839	0.029207	0.037737	-0.12689	0.028423	0.15699	-0.14627	-0.082789	0.042535
44	0.4078	-0.097025	-0.0089036	0.16046	-0.13206	-0.2419	0.19209	-0.13676	-0.23344	0.2228	-0.046816	-0.15316	-0.008669	-0.046816	0.031938	-0.008669	0	0	0	-0.12839	0.029202	0.03774	-0.12689	0.028408	0.15699	-0.14627	-0.082794	0.042524
45	0.41728	-0.097026	-0.0088965	0.16045	-0.13201	-0.24178	0.19215	-0.13673	-0.23332	0.22285	-0.046816	-0.15316	-0.008669	-0.046816	0.031938	-0.008669	0	0	0	-0.12839	0.029197	0.037742	-0.12689	0.028393	0.15699	-0.14626	-0.082799	0.042511
46	0.42677	-0.097026	-0.0088895	0.16043	-0.13196	-0.24166	0.1922	-0.1367	-0.2332	0.2229	-0.046816	-0.15316	-0.008669	-0.046816	0.031938	-0.008669	0	0	0	-0.12839	0.029192	0.037745	-0.12689	0.028377	0.15699	-0.14626	-0.082805	0.042497
47	0.43625	-0.097025	-0.0088824	0.16042	-0.13191	-0.24154	0.19225	-0.13668	-0.23307	0.22295	-0.046816	-0.15316	-0.008669	-0.046816	0.031938	-0.008669	0	0	0	-0.12838	0.029187	0.037747	-0.12689	0.028362	0.157	-0.14626	-0.082811	0.042482
48	0.44573	-0.097025	-0.0088752	0.16041	-0.13186	-0.24142	0.1923	-0.13666	-0.23295	0.223	-0.046816	-0.15316	-0.008669	-0.046816	0.031938	-0.008669	0	0	0	-0.12838	0.029182	0.03775	-0.12689	0.028346	0.157	-0.14626	-0.082816	0.042465
49	0.45522	-0.097024	-0.008868	0.16039	-0.13182	-0.2413	0.19236	-0.13665	-0.23282	0.22305	-0.046816	-0.15316	-0.008669	-0.046816	0.031938	-0.008669	0	0	0	-0.12838	0.029177	0.037752	-0.12689	0.02833	0.157	-0.14626	-0.082822	0.042448
50	0.4647	-0.097023	-0.0088608	0.16038	-0.13178	-0.24119	0.19241	-0.13664	-0.2327	0.2231	-0.046816	-0.15316	-0.008669	-0.046816	0.031938	-0.008669	0	0	0	-0.12838	0.029172	0.037754	-0.12689	0.028314	0.157	-0.14626	-0.082827	0.042429
51	0.47418	-0.097021	-0.0088535	0.16036	-0.13174	-0.24107	0.19246	-0.13664	-0.23258	0.22316	-0.046816	-0.15316	-0.008669	-0.046816	0.031938	-0.008669	0	0	0	-0.12838	0.029167	0.037755	-0.12688	0.028297	0.157	-0.14626	-0.082832	0.042409
